# xmcd CD database file
#
# Track frame offsets:
#	150
#	32388
#	59080
#	100108
#	143027
#
# Disc length: 2598 seconds
#
# Revision: 0
# Processed by: cddbd v1.5.2PL0 Copyright (c) Steve Scherf et al.
# Submitted via: CDex 1.70beta2
#
DISCID=3c0a2405
DTITLE=Braxton, Anthony - Five Compositions (Quartet) 1986
DYEAR=1986
DGENRE=Jazz
TTITLE0=Composition Nr. 131
TTITLE1=Composition Nr. 88 (+ 108C)
TTITLE2=Composition Nr. 124 (+108D and 96)
TTITLE3=Composition Nr. 122 (+ 108 and 96)
TTITLE4=Composition Nr. 101 (+ 31 and 86 and 30)
EXTD=YEAR: 1986
EXTT0=
EXTT1=
EXTT2=
EXTT3=
EXTT4=
PLAYORDER=
